# xmcd
#
# Track frame offsets: 
#        150
#        44903
#        98456
#        145692
#        169547
#        187402
#        209658
#        245260
#
# Disc length: 3363 seconds
#
# Revision: 0
# Processed by: cddbd v1.5.2PL0 Copyright (c) Steve Scherf et al.
# Submitted via: ExactAudioCopy v0.95b3
#
DISCID=730d2108
DTITLE=Santana  - Jingo (German Import) [FLAC]
DYEAR=1900
DGENRE=
TTITLE0=Jingo
TTITLE1=El Corazon Manda
TTITLE2=La Puesta De Sol
TTITLE3=Persuasion
TTITLE4=As The Years Go By
TTITLE5=Soul Sacrifice
TTITLE6=Evil Ways (Live)
TTITLE7=Rock Me (Live)
EXTD=
EXTT0=
EXTT1=
EXTT2=
EXTT3=
EXTT4=
EXTT5=
EXTT6=
EXTT7=
PLAYORDER=
